# Tiled2Unity generated file. Do not modify by hand.
# Wavefront file for 'CombatBG_mesh_0002.obj'

# Vertices (Count = 548)
v -241 -161 0
v -257 -161 0
v -257 -145 0
v -241 -145 0
v -225 -161 0
v -241 -161 0
v -241 -145 0
v -225 -145 0
v -209 -161 0
v -225 -161 0
v -225 -145 0
v -209 -145 0
v -193 -161 0
v -209 -161 0
v -209 -145 0
v -193 -145 0
v -177 -161 0
v -193 -161 0
v -193 -145 0
v -177 -145 0
v -161 -161 0
v -177 -161 0
v -177 -145 0
v -161 -145 0
v -273 -177 0
v -289 -177 0
v -289 -161 0
v -273 -161 0
v -257 -177 0
v -273 -177 0
v -273 -161 0
v -257 -161 0
v -241 -177 0
v -257 -177 0
v -257 -161 0
v -241 -161 0
v -225 -177 0
v -241 -177 0
v -241 -161 0
v -225 -161 0
v -209 -177 0
v -225 -177 0
v -225 -161 0
v -209 -161 0
v -193 -177 0
v -209 -177 0
v -209 -161 0
v -193 -161 0
v -177 -177 0
v -193 -177 0
v -193 -161 0
v -177 -161 0
v -161 -177 0
v -177 -177 0
v -177 -161 0
v -161 -161 0
v -145 -177 0
v -161 -177 0
v -161 -161 0
v -145 -161 0
v -129 -177 0
v -145 -177 0
v -145 -161 0
v -129 -161 0
v -113 -177 0
v -129 -177 0
v -129 -161 0
v -113 -161 0
v -97 -177 0
v -113 -177 0
v -113 -161 0
v -97 -161 0
v -81 -177 0
v -97 -177 0
v -97 -161 0
v -81 -161 0
v -65 -177 0
v -81 -177 0
v -81 -161 0
v -65 -161 0
v -305 -193 0
v -321 -193 0
v -321 -177 0
v -305 -177 0
v -289 -193 0
v -305 -193 0
v -305 -177 0
v -289 -177 0
v -273 -193 0
v -289 -193 0
v -289 -177 0
v -273 -177 0
v -257 -193 0
v -273 -193 0
v -273 -177 0
v -257 -177 0
v -241 -193 0
v -257 -193 0
v -257 -177 0
v -241 -177 0
v -225 -193 0
v -241 -193 0
v -241 -177 0
v -225 -177 0
v -209 -193 0
v -225 -193 0
v -225 -177 0
v -209 -177 0
v -193 -193 0
v -209 -193 0
v -209 -177 0
v -193 -177 0
v -177 -193 0
v -193 -193 0
v -193 -177 0
v -177 -177 0
v -161 -193 0
v -177 -193 0
v -177 -177 0
v -161 -177 0
v -145 -193 0
v -161 -193 0
v -161 -177 0
v -145 -177 0
v -129 -193 0
v -145 -193 0
v -145 -177 0
v -129 -177 0
v -113 -193 0
v -129 -193 0
v -129 -177 0
v -113 -177 0
v -97 -193 0
v -113 -193 0
v -113 -177 0
v -97 -177 0
v -81 -193 0
v -97 -193 0
v -97 -177 0
v -81 -177 0
v -65 -193 0
v -81 -193 0
v -81 -177 0
v -65 -177 0
v -321 -209 0
v -337 -209 0
v -337 -193 0
v -321 -193 0
v -305 -209 0
v -321 -209 0
v -321 -193 0
v -305 -193 0
v -289 -209 0
v -305 -209 0
v -305 -193 0
v -289 -193 0
v -273 -209 0
v -289 -209 0
v -289 -193 0
v -273 -193 0
v -257 -209 0
v -273 -209 0
v -273 -193 0
v -257 -193 0
v -241 -209 0
v -257 -209 0
v -257 -193 0
v -241 -193 0
v -225 -209 0
v -241 -209 0
v -241 -193 0
v -225 -193 0
v -209 -209 0
v -225 -209 0
v -225 -193 0
v -209 -193 0
v -193 -209 0
v -209 -209 0
v -209 -193 0
v -193 -193 0
v -177 -209 0
v -193 -209 0
v -193 -193 0
v -177 -193 0
v -161 -209 0
v -177 -209 0
v -177 -193 0
v -161 -193 0
v -145 -209 0
v -161 -209 0
v -161 -193 0
v -145 -193 0
v -129 -209 0
v -145 -209 0
v -145 -193 0
v -129 -193 0
v -113 -209 0
v -129 -209 0
v -129 -193 0
v -113 -193 0
v -97 -209 0
v -113 -209 0
v -113 -193 0
v -97 -193 0
v -81 -209 0
v -97 -209 0
v -97 -193 0
v -81 -193 0
v -65 -209 0
v -81 -209 0
v -81 -193 0
v -65 -193 0
v -321 -225 0
v -337 -225 0
v -337 -209 0
v -321 -209 0
v -305 -225 0
v -321 -225 0
v -321 -209 0
v -305 -209 0
v -289 -225 0
v -305 -225 0
v -305 -209 0
v -289 -209 0
v -273 -225 0
v -289 -225 0
v -289 -209 0
v -273 -209 0
v -257 -225 0
v -273 -225 0
v -273 -209 0
v -257 -209 0
v -241 -225 0
v -257 -225 0
v -257 -209 0
v -241 -209 0
v -225 -225 0
v -241 -225 0
v -241 -209 0
v -225 -209 0
v -209 -225 0
v -225 -225 0
v -225 -209 0
v -209 -209 0
v -193 -225 0
v -209 -225 0
v -209 -209 0
v -193 -209 0
v -177 -225 0
v -193 -225 0
v -193 -209 0
v -177 -209 0
v -161 -225 0
v -177 -225 0
v -177 -209 0
v -161 -209 0
v -145 -225 0
v -161 -225 0
v -161 -209 0
v -145 -209 0
v -129 -225 0
v -145 -225 0
v -145 -209 0
v -129 -209 0
v -113 -225 0
v -129 -225 0
v -129 -209 0
v -113 -209 0
v -97 -225 0
v -113 -225 0
v -113 -209 0
v -97 -209 0
v -81 -225 0
v -97 -225 0
v -97 -209 0
v -81 -209 0
v -65 -225 0
v -81 -225 0
v -81 -209 0
v -65 -209 0
v -321 -241 0
v -337 -241 0
v -337 -225 0
v -321 -225 0
v -305 -241 0
v -321 -241 0
v -321 -225 0
v -305 -225 0
v -289 -241 0
v -305 -241 0
v -305 -225 0
v -289 -225 0
v -273 -241 0
v -289 -241 0
v -289 -225 0
v -273 -225 0
v -257 -241 0
v -273 -241 0
v -273 -225 0
v -257 -225 0
v -241 -241 0
v -257 -241 0
v -257 -225 0
v -241 -225 0
v -225 -241 0
v -241 -241 0
v -241 -225 0
v -225 -225 0
v -209 -241 0
v -225 -241 0
v -225 -225 0
v -209 -225 0
v -193 -241 0
v -209 -241 0
v -209 -225 0
v -193 -225 0
v -177 -241 0
v -193 -241 0
v -193 -225 0
v -177 -225 0
v -161 -241 0
v -177 -241 0
v -177 -225 0
v -161 -225 0
v -145 -241 0
v -161 -241 0
v -161 -225 0
v -145 -225 0
v -129 -241 0
v -145 -241 0
v -145 -225 0
v -129 -225 0
v -113 -241 0
v -129 -241 0
v -129 -225 0
v -113 -225 0
v -97 -241 0
v -113 -241 0
v -113 -225 0
v -97 -225 0
v -81 -241 0
v -97 -241 0
v -97 -225 0
v -81 -225 0
v -65 -241 0
v -81 -241 0
v -81 -225 0
v -65 -225 0
v -321 -257 0
v -337 -257 0
v -337 -241 0
v -321 -241 0
v -305 -257 0
v -321 -257 0
v -321 -241 0
v -305 -241 0
v -289 -257 0
v -305 -257 0
v -305 -241 0
v -289 -241 0
v -273 -257 0
v -289 -257 0
v -289 -241 0
v -273 -241 0
v -257 -257 0
v -273 -257 0
v -273 -241 0
v -257 -241 0
v -241 -257 0
v -257 -257 0
v -257 -241 0
v -241 -241 0
v -225 -257 0
v -241 -257 0
v -241 -241 0
v -225 -241 0
v -209 -257 0
v -225 -257 0
v -225 -241 0
v -209 -241 0
v -193 -257 0
v -209 -257 0
v -209 -241 0
v -193 -241 0
v -177 -257 0
v -193 -257 0
v -193 -241 0
v -177 -241 0
v -161 -257 0
v -177 -257 0
v -177 -241 0
v -161 -241 0
v -145 -257 0
v -161 -257 0
v -161 -241 0
v -145 -241 0
v -129 -257 0
v -145 -257 0
v -145 -241 0
v -129 -241 0
v -113 -257 0
v -129 -257 0
v -129 -241 0
v -113 -241 0
v -97 -257 0
v -113 -257 0
v -113 -241 0
v -97 -241 0
v -81 -257 0
v -97 -257 0
v -97 -241 0
v -81 -241 0
v -65 -257 0
v -81 -257 0
v -81 -241 0
v -65 -241 0
v -321 -273 0
v -337 -273 0
v -337 -257 0
v -321 -257 0
v -305 -273 0
v -321 -273 0
v -321 -257 0
v -305 -257 0
v -289 -273 0
v -305 -273 0
v -305 -257 0
v -289 -257 0
v -273 -273 0
v -289 -273 0
v -289 -257 0
v -273 -257 0
v -257 -273 0
v -273 -273 0
v -273 -257 0
v -257 -257 0
v -241 -273 0
v -257 -273 0
v -257 -257 0
v -241 -257 0
v -225 -273 0
v -241 -273 0
v -241 -257 0
v -225 -257 0
v -209 -273 0
v -225 -273 0
v -225 -257 0
v -209 -257 0
v -193 -273 0
v -209 -273 0
v -209 -257 0
v -193 -257 0
v -177 -273 0
v -193 -273 0
v -193 -257 0
v -177 -257 0
v -161 -273 0
v -177 -273 0
v -177 -257 0
v -161 -257 0
v -145 -273 0
v -161 -273 0
v -161 -257 0
v -145 -257 0
v -129 -273 0
v -145 -273 0
v -145 -257 0
v -129 -257 0
v -113 -273 0
v -129 -273 0
v -129 -257 0
v -113 -257 0
v -97 -273 0
v -113 -273 0
v -113 -257 0
v -97 -257 0
v -81 -273 0
v -97 -273 0
v -97 -257 0
v -81 -257 0
v -305 -289 0
v -321 -289 0
v -321 -273 0
v -305 -273 0
v -289 -289 0
v -305 -289 0
v -305 -273 0
v -289 -273 0
v -273 -289 0
v -289 -289 0
v -289 -273 0
v -273 -273 0
v -257 -289 0
v -273 -289 0
v -273 -273 0
v -257 -273 0
v -241 -289 0
v -257 -289 0
v -257 -273 0
v -241 -273 0
v -225 -289 0
v -241 -289 0
v -241 -273 0
v -225 -273 0
v -209 -289 0
v -225 -289 0
v -225 -273 0
v -209 -273 0
v -193 -289 0
v -209 -289 0
v -209 -273 0
v -193 -273 0
v -177 -289 0
v -193 -289 0
v -193 -273 0
v -177 -273 0
v -161 -289 0
v -177 -289 0
v -177 -273 0
v -161 -273 0
v -145 -289 0
v -161 -289 0
v -161 -273 0
v -145 -273 0
v -129 -289 0
v -145 -289 0
v -145 -273 0
v -129 -273 0
v -113 -289 0
v -129 -289 0
v -129 -273 0
v -113 -273 0
v -97 -289 0
v -113 -289 0
v -113 -273 0
v -97 -273 0
v -177 -305 0
v -193 -305 0
v -193 -289 0
v -177 -289 0
v -161 -305 0
v -177 -305 0
v -177 -289 0
v -161 -289 0
v -145 -305 0
v -161 -305 0
v -161 -289 0
v -145 -289 0

# Texture cooridinates (Count = 52)
vt 0.1580579 0.6787072
vt 0.1745868 0.6787072
vt 0.1745868 0.7091255
vt 0.1580579 0.7091255
vt 0.1404959 0.6787072
vt 0.1570248 0.6787072
vt 0.1570248 0.7091255
vt 0.1404959 0.7091255
vt 0.1229339 0.6787072
vt 0.1394628 0.6787072
vt 0.1394628 0.7091255
vt 0.1229339 0.7091255
vt 0.08780992 0.6463878
vt 0.1043388 0.6463878
vt 0.1043388 0.6768061
vt 0.08780992 0.6768061
vt 0.1404959 0.6463878
vt 0.1570248 0.6463878
vt 0.1570248 0.6768061
vt 0.1404959 0.6768061
vt 0.1053719 0.6463878
vt 0.1219008 0.6463878
vt 0.1219008 0.6768061
vt 0.1053719 0.6768061
vt 0.1229339 0.6463878
vt 0.1394628 0.6463878
vt 0.1394628 0.6768061
vt 0.1229339 0.6768061
vt 0.1580579 0.6463878
vt 0.1745868 0.6463878
vt 0.1745868 0.6768061
vt 0.1580579 0.6768061
vt 0.1053719 0.6787072
vt 0.1219008 0.6787072
vt 0.1219008 0.7091255
vt 0.1053719 0.7091255
vt 0.1229339 0.6140684
vt 0.1394628 0.6140684
vt 0.1394628 0.6444867
vt 0.1229339 0.6444867
vt 0.1580579 0.6140684
vt 0.1745868 0.6140684
vt 0.1745868 0.6444867
vt 0.1580579 0.6444867
vt 0.08780992 0.6787072
vt 0.1043388 0.6787072
vt 0.1043388 0.7091255
vt 0.08780992 0.7091255
vt 0.1404959 0.6140684
vt 0.1570248 0.6140684
vt 0.1570248 0.6444867
vt 0.1404959 0.6444867

# Normal
vn 0 0 -1

# Mesh description
g CombatBG_mesh_0002

# Faces
f 1/1/1 2/2/1 3/3/1 4/4/1
f 5/5/1 6/6/1 7/7/1 8/8/1
f 9/5/1 10/6/1 11/7/1 12/8/1
f 13/5/1 14/6/1 15/7/1 16/8/1
f 17/5/1 18/6/1 19/7/1 20/8/1
f 21/9/1 22/10/1 23/11/1 24/12/1
f 25/1/1 26/2/1 27/3/1 28/4/1
f 29/5/1 30/6/1 31/7/1 32/8/1
f 33/13/1 34/14/1 35/15/1 36/16/1
f 37/17/1 38/18/1 39/19/1 40/20/1
f 41/17/1 42/18/1 43/19/1 44/20/1
f 45/17/1 46/18/1 47/19/1 48/20/1
f 49/17/1 50/18/1 51/19/1 52/20/1
f 53/21/1 54/22/1 55/23/1 56/24/1
f 57/5/1 58/6/1 59/7/1 60/8/1
f 61/5/1 62/6/1 63/7/1 64/8/1
f 65/5/1 66/6/1 67/7/1 68/8/1
f 69/5/1 70/6/1 71/7/1 72/8/1
f 73/5/1 74/6/1 75/7/1 76/8/1
f 77/9/1 78/10/1 79/11/1 80/12/1
f 81/1/1 82/2/1 83/3/1 84/4/1
f 85/5/1 86/6/1 87/7/1 88/8/1
f 89/13/1 90/14/1 91/15/1 92/16/1
f 93/17/1 94/18/1 95/19/1 96/20/1
f 97/17/1 98/18/1 99/19/1 100/20/1
f 101/17/1 102/18/1 103/19/1 104/20/1
f 105/17/1 106/18/1 107/19/1 108/20/1
f 109/17/1 110/18/1 111/19/1 112/20/1
f 113/17/1 114/18/1 115/19/1 116/20/1
f 117/17/1 118/18/1 119/19/1 120/20/1
f 121/17/1 122/18/1 123/19/1 124/20/1
f 125/17/1 126/18/1 127/19/1 128/20/1
f 129/17/1 130/18/1 131/19/1 132/20/1
f 133/17/1 134/18/1 135/19/1 136/20/1
f 137/17/1 138/18/1 139/19/1 140/20/1
f 141/25/1 142/26/1 143/27/1 144/28/1
f 145/1/1 146/2/1 147/3/1 148/4/1
f 149/13/1 150/14/1 151/15/1 152/16/1
f 153/17/1 154/18/1 155/19/1 156/20/1
f 157/17/1 158/18/1 159/19/1 160/20/1
f 161/17/1 162/18/1 163/19/1 164/20/1
f 165/17/1 166/18/1 167/19/1 168/20/1
f 169/17/1 170/18/1 171/19/1 172/20/1
f 173/17/1 174/18/1 175/19/1 176/20/1
f 177/17/1 178/18/1 179/19/1 180/20/1
f 181/17/1 182/18/1 183/19/1 184/20/1
f 185/17/1 186/18/1 187/19/1 188/20/1
f 189/17/1 190/18/1 191/19/1 192/20/1
f 193/17/1 194/18/1 195/19/1 196/20/1
f 197/17/1 198/18/1 199/19/1 200/20/1
f 201/17/1 202/18/1 203/19/1 204/20/1
f 205/17/1 206/18/1 207/19/1 208/20/1
f 209/25/1 210/26/1 211/27/1 212/28/1
f 213/29/1 214/30/1 215/31/1 216/32/1
f 217/17/1 218/18/1 219/19/1 220/20/1
f 221/17/1 222/18/1 223/19/1 224/20/1
f 225/17/1 226/18/1 227/19/1 228/20/1
f 229/17/1 230/18/1 231/19/1 232/20/1
f 233/17/1 234/18/1 235/19/1 236/20/1
f 237/17/1 238/18/1 239/19/1 240/20/1
f 241/17/1 242/18/1 243/19/1 244/20/1
f 245/17/1 246/18/1 247/19/1 248/20/1
f 249/17/1 250/18/1 251/19/1 252/20/1
f 253/17/1 254/18/1 255/19/1 256/20/1
f 257/17/1 258/18/1 259/19/1 260/20/1
f 261/17/1 262/18/1 263/19/1 264/20/1
f 265/17/1 266/18/1 267/19/1 268/20/1
f 269/17/1 270/18/1 271/19/1 272/20/1
f 273/17/1 274/18/1 275/19/1 276/20/1
f 277/25/1 278/26/1 279/27/1 280/28/1
f 281/29/1 282/30/1 283/31/1 284/32/1
f 285/17/1 286/18/1 287/19/1 288/20/1
f 289/17/1 290/18/1 291/19/1 292/20/1
f 293/17/1 294/18/1 295/19/1 296/20/1
f 297/17/1 298/18/1 299/19/1 300/20/1
f 301/17/1 302/18/1 303/19/1 304/20/1
f 305/17/1 306/18/1 307/19/1 308/20/1
f 309/17/1 310/18/1 311/19/1 312/20/1
f 313/17/1 314/18/1 315/19/1 316/20/1
f 317/17/1 318/18/1 319/19/1 320/20/1
f 321/17/1 322/18/1 323/19/1 324/20/1
f 325/17/1 326/18/1 327/19/1 328/20/1
f 329/17/1 330/18/1 331/19/1 332/20/1
f 333/17/1 334/18/1 335/19/1 336/20/1
f 337/17/1 338/18/1 339/19/1 340/20/1
f 341/17/1 342/18/1 343/19/1 344/20/1
f 345/25/1 346/26/1 347/27/1 348/28/1
f 349/29/1 350/30/1 351/31/1 352/32/1
f 353/17/1 354/18/1 355/19/1 356/20/1
f 357/17/1 358/18/1 359/19/1 360/20/1
f 361/17/1 362/18/1 363/19/1 364/20/1
f 365/17/1 366/18/1 367/19/1 368/20/1
f 369/17/1 370/18/1 371/19/1 372/20/1
f 373/17/1 374/18/1 375/19/1 376/20/1
f 377/17/1 378/18/1 379/19/1 380/20/1
f 381/17/1 382/18/1 383/19/1 384/20/1
f 385/17/1 386/18/1 387/19/1 388/20/1
f 389/17/1 390/18/1 391/19/1 392/20/1
f 393/17/1 394/18/1 395/19/1 396/20/1
f 397/17/1 398/18/1 399/19/1 400/20/1
f 401/17/1 402/18/1 403/19/1 404/20/1
f 405/17/1 406/18/1 407/19/1 408/20/1
f 409/33/1 410/34/1 411/35/1 412/36/1
f 413/37/1 414/38/1 415/39/1 416/40/1
f 417/41/1 418/42/1 419/43/1 420/44/1
f 421/45/1 422/46/1 423/47/1 424/48/1
f 425/17/1 426/18/1 427/19/1 428/20/1
f 429/17/1 430/18/1 431/19/1 432/20/1
f 433/17/1 434/18/1 435/19/1 436/20/1
f 437/17/1 438/18/1 439/19/1 440/20/1
f 441/17/1 442/18/1 443/19/1 444/20/1
f 445/17/1 446/18/1 447/19/1 448/20/1
f 449/17/1 450/18/1 451/19/1 452/20/1
f 453/17/1 454/18/1 455/19/1 456/20/1
f 457/17/1 458/18/1 459/19/1 460/20/1
f 461/17/1 462/18/1 463/19/1 464/20/1
f 465/17/1 466/18/1 467/19/1 468/20/1
f 469/17/1 470/18/1 471/19/1 472/20/1
f 473/33/1 474/34/1 475/35/1 476/36/1
f 477/37/1 478/38/1 479/39/1 480/40/1
f 481/41/1 482/42/1 483/43/1 484/44/1
f 485/49/1 486/50/1 487/51/1 488/52/1
f 489/49/1 490/50/1 491/51/1 492/52/1
f 493/49/1 494/50/1 495/51/1 496/52/1
f 497/49/1 498/50/1 499/51/1 500/52/1
f 501/49/1 502/50/1 503/51/1 504/52/1
f 505/49/1 506/50/1 507/51/1 508/52/1
f 509/49/1 510/50/1 511/51/1 512/52/1
f 513/45/1 514/46/1 515/47/1 516/48/1
f 517/17/1 518/18/1 519/19/1 520/20/1
f 521/33/1 522/34/1 523/35/1 524/36/1
f 525/49/1 526/50/1 527/51/1 528/52/1
f 529/49/1 530/50/1 531/51/1 532/52/1
f 533/37/1 534/38/1 535/39/1 536/40/1
f 537/41/1 538/42/1 539/43/1 540/44/1
f 541/49/1 542/50/1 543/51/1 544/52/1
f 545/37/1 546/38/1 547/39/1 548/40/1

