# Tiled2Unity generated file. Do not modify by hand.
# Wavefront file for 'CombatBG_mesh_0003.obj'

# Vertices (Count = 396)
v -241 -65 0
v -257 -65 0
v -257 -49 0
v -241 -49 0
v -289 -81 0
v -305 -81 0
v -305 -65 0
v -289 -65 0
v -241 -81 0
v -257 -81 0
v -257 -65 0
v -241 -65 0
v -177 -81 0
v -193 -81 0
v -193 -65 0
v -177 -65 0
v -257 -97 0
v -273 -97 0
v -273 -81 0
v -257 -81 0
v -193 -97 0
v -209 -97 0
v -209 -81 0
v -193 -81 0
v -177 -97 0
v -193 -97 0
v -193 -81 0
v -177 -81 0
v -97 -97 0
v -113 -97 0
v -113 -81 0
v -97 -81 0
v -81 -97 0
v -97 -97 0
v -97 -81 0
v -81 -81 0
v -305 -113 0
v -321 -113 0
v -321 -97 0
v -305 -97 0
v -193 -113 0
v -209 -113 0
v -209 -97 0
v -193 -97 0
v -145 -113 0
v -161 -113 0
v -161 -97 0
v -145 -97 0
v -97 -113 0
v -113 -113 0
v -113 -97 0
v -97 -97 0
v -81 -113 0
v -97 -113 0
v -97 -97 0
v -81 -97 0
v -289 -129 0
v -305 -129 0
v -305 -113 0
v -289 -113 0
v -273 -129 0
v -289 -129 0
v -289 -113 0
v -273 -113 0
v -257 -129 0
v -273 -129 0
v -273 -113 0
v -257 -113 0
v -241 -129 0
v -257 -129 0
v -257 -113 0
v -241 -113 0
v -225 -129 0
v -241 -129 0
v -241 -113 0
v -225 -113 0
v -209 -129 0
v -225 -129 0
v -225 -113 0
v -209 -113 0
v -177 -129 0
v -193 -129 0
v -193 -113 0
v -177 -113 0
v -145 -129 0
v -161 -129 0
v -161 -113 0
v -145 -113 0
v -129 -129 0
v -145 -129 0
v -145 -113 0
v -129 -113 0
v -113 -129 0
v -129 -129 0
v -129 -113 0
v -113 -113 0
v -81 -129 0
v -97 -129 0
v -97 -113 0
v -81 -113 0
v -289 -145 0
v -305 -145 0
v -305 -129 0
v -289 -129 0
v -273 -145 0
v -289 -145 0
v -289 -129 0
v -273 -129 0
v -257 -145 0
v -273 -145 0
v -273 -129 0
v -257 -129 0
v -225 -145 0
v -241 -145 0
v -241 -129 0
v -225 -129 0
v -177 -145 0
v -193 -145 0
v -193 -129 0
v -177 -129 0
v -145 -145 0
v -161 -145 0
v -161 -129 0
v -145 -129 0
v -129 -145 0
v -145 -145 0
v -145 -129 0
v -129 -129 0
v -113 -145 0
v -129 -145 0
v -129 -129 0
v -113 -129 0
v -97 -145 0
v -113 -145 0
v -113 -129 0
v -97 -129 0
v -81 -145 0
v -97 -145 0
v -97 -129 0
v -81 -129 0
v -65 -145 0
v -81 -145 0
v -81 -129 0
v -65 -129 0
v -321 -161 0
v -337 -161 0
v -337 -145 0
v -321 -145 0
v -305 -161 0
v -321 -161 0
v -321 -145 0
v -305 -145 0
v -289 -161 0
v -305 -161 0
v -305 -145 0
v -289 -145 0
v -257 -161 0
v -273 -161 0
v -273 -145 0
v -257 -145 0
v -97 -161 0
v -113 -161 0
v -113 -145 0
v -97 -145 0
v -65 -161 0
v -81 -161 0
v -81 -145 0
v -65 -145 0
v -337 -177 0
v -353 -177 0
v -353 -161 0
v -337 -161 0
v -321 -177 0
v -337 -177 0
v -337 -161 0
v -321 -161 0
v -305 -177 0
v -321 -177 0
v -321 -161 0
v -305 -161 0
v -289 -177 0
v -305 -177 0
v -305 -161 0
v -289 -161 0
v -337 -193 0
v -353 -193 0
v -353 -177 0
v -337 -177 0
v -33 -193 0
v -49 -193 0
v -49 -177 0
v -33 -177 0
v -33 -209 0
v -49 -209 0
v -49 -193 0
v -33 -193 0
v -49 -273 0
v -65 -273 0
v -65 -257 0
v -49 -257 0
v -33 -273 0
v -49 -273 0
v -49 -257 0
v -33 -257 0
v -353 -289 0
v -369 -289 0
v -369 -273 0
v -353 -273 0
v -257 -289 0
v -273 -289 0
v -273 -273 0
v -257 -273 0
v -65 -289 0
v -81 -289 0
v -81 -273 0
v -65 -273 0
v -49 -289 0
v -65 -289 0
v -65 -273 0
v -49 -273 0
v -353 -305 0
v -369 -305 0
v -369 -289 0
v -353 -289 0
v -337 -305 0
v -353 -305 0
v -353 -289 0
v -337 -289 0
v -289 -305 0
v -305 -305 0
v -305 -289 0
v -289 -289 0
v -273 -305 0
v -289 -305 0
v -289 -289 0
v -273 -289 0
v -257 -305 0
v -273 -305 0
v -273 -289 0
v -257 -289 0
v -241 -305 0
v -257 -305 0
v -257 -289 0
v -241 -289 0
v -225 -305 0
v -241 -305 0
v -241 -289 0
v -225 -289 0
v -209 -305 0
v -225 -305 0
v -225 -289 0
v -209 -289 0
v -193 -305 0
v -209 -305 0
v -209 -289 0
v -193 -289 0
v -129 -305 0
v -145 -305 0
v -145 -289 0
v -129 -289 0
v -113 -305 0
v -129 -305 0
v -129 -289 0
v -113 -289 0
v -81 -305 0
v -97 -305 0
v -97 -289 0
v -81 -289 0
v -65 -305 0
v -81 -305 0
v -81 -289 0
v -65 -289 0
v -337 -321 0
v -353 -321 0
v -353 -305 0
v -337 -305 0
v -321 -321 0
v -337 -321 0
v -337 -305 0
v -321 -305 0
v -305 -321 0
v -321 -321 0
v -321 -305 0
v -305 -305 0
v -289 -321 0
v -305 -321 0
v -305 -305 0
v -289 -305 0
v -193 -321 0
v -209 -321 0
v -209 -305 0
v -193 -305 0
v -177 -321 0
v -193 -321 0
v -193 -305 0
v -177 -305 0
v -145 -321 0
v -161 -321 0
v -161 -305 0
v -145 -305 0
v -129 -321 0
v -145 -321 0
v -145 -305 0
v -129 -305 0
v -97 -321 0
v -113 -321 0
v -113 -305 0
v -97 -305 0
v -81 -321 0
v -97 -321 0
v -97 -305 0
v -81 -305 0
v -289 -337 0
v -305 -337 0
v -305 -321 0
v -289 -321 0
v -257 -337 0
v -273 -337 0
v -273 -321 0
v -257 -321 0
v -209 -337 0
v -225 -337 0
v -225 -321 0
v -209 -321 0
v -193 -337 0
v -209 -337 0
v -209 -321 0
v -193 -321 0
v -161 -337 0
v -177 -337 0
v -177 -321 0
v -161 -321 0
v -113 -337 0
v -129 -337 0
v -129 -321 0
v -113 -321 0
v -305 -353 0
v -321 -353 0
v -321 -337 0
v -305 -337 0
v -289 -353 0
v -305 -353 0
v -305 -337 0
v -289 -337 0
v -225 -353 0
v -241 -353 0
v -241 -337 0
v -225 -337 0
v -193 -353 0
v -209 -353 0
v -209 -337 0
v -193 -337 0
v -81 -353 0
v -97 -353 0
v -97 -337 0
v -81 -337 0
v -65 -353 0
v -81 -353 0
v -81 -337 0
v -65 -337 0
v -353 -369 0
v -369 -369 0
v -369 -353 0
v -353 -353 0
v -161 -369 0
v -177 -369 0
v -177 -353 0
v -161 -353 0
v -145 -369 0
v -161 -369 0
v -161 -353 0
v -145 -353 0
v -81 -369 0
v -97 -369 0
v -97 -353 0
v -81 -353 0
v -65 -369 0
v -81 -369 0
v -81 -353 0
v -65 -353 0
v -353 -385 0
v -369 -385 0
v -369 -369 0
v -353 -369 0
v -305 -385 0
v -321 -385 0
v -321 -369 0
v -305 -369 0
v -161 -385 0
v -177 -385 0
v -177 -369 0
v -161 -369 0
v -145 -385 0
v -161 -385 0
v -161 -369 0
v -145 -369 0

# Texture cooridinates (Count = 52)
vt 0.2809917 0.6463878
vt 0.2975207 0.6463878
vt 0.2975207 0.6768061
vt 0.2809917 0.6768061
vt 0.2809917 0.6787072
vt 0.2975207 0.6787072
vt 0.2975207 0.7091255
vt 0.2809917 0.7091255
vt 0.2809917 0.6140684
vt 0.2975207 0.6140684
vt 0.2975207 0.6444867
vt 0.2809917 0.6444867
vt 0.4039256 0.6787072
vt 0.4204545 0.6787072
vt 0.4204545 0.7091255
vt 0.4039256 0.7091255
vt 0.2283058 0.6463878
vt 0.2448347 0.6463878
vt 0.2448347 0.6768061
vt 0.2283058 0.6768061
vt 0.2283058 0.6140684
vt 0.2448347 0.6140684
vt 0.2448347 0.6444867
vt 0.2283058 0.6444867
vt 0.3336777 0.6787072
vt 0.3502066 0.6787072
vt 0.3502066 0.7091255
vt 0.3336777 0.7091255
vt 0.2283058 0.6787072
vt 0.2448347 0.6787072
vt 0.2448347 0.7091255
vt 0.2283058 0.7091255
vt 0.4039256 0.6463878
vt 0.4204545 0.6463878
vt 0.4204545 0.6768061
vt 0.4039256 0.6768061
vt 0.4039256 0.6140684
vt 0.4204545 0.6140684
vt 0.4204545 0.6444867
vt 0.4039256 0.6444867
vt 0.4214876 0.6140684
vt 0.4380165 0.6140684
vt 0.4380165 0.6444867
vt 0.4214876 0.6444867
vt 0.4214876 0.6463878
vt 0.4380165 0.6463878
vt 0.4380165 0.6768061
vt 0.4214876 0.6768061
vt 0.4214876 0.6787072
vt 0.4380165 0.6787072
vt 0.4380165 0.7091255
vt 0.4214876 0.7091255

# Normal
vn 0 0 -1

# Mesh description
g CombatBG_mesh_0003

# Faces
f 1/1/1 2/2/1 3/3/1 4/4/1
f 5/5/1 6/6/1 7/7/1 8/8/1
f 9/9/1 10/10/1 11/11/1 12/12/1
f 13/5/1 14/6/1 15/7/1 16/8/1
f 17/5/1 18/6/1 19/7/1 20/8/1
f 21/1/1 22/2/1 23/3/1 24/4/1
f 25/13/1 26/14/1 27/15/1 28/16/1
f 29/17/1 30/18/1 31/19/1 32/20/1
f 33/5/1 34/6/1 35/7/1 36/8/1
f 37/5/1 38/6/1 39/7/1 40/8/1
f 41/9/1 42/10/1 43/11/1 44/12/1
f 45/17/1 46/18/1 47/19/1 48/20/1
f 49/21/1 50/22/1 51/23/1 52/24/1
f 53/5/1 54/6/1 55/7/1 56/8/1
f 57/17/1 58/18/1 59/19/1 60/20/1
f 61/17/1 62/18/1 63/19/1 64/20/1
f 65/5/1 66/6/1 67/7/1 68/8/1
f 69/5/1 70/6/1 71/7/1 72/8/1
f 73/17/1 74/18/1 75/19/1 76/20/1
f 77/25/1 78/26/1 79/27/1 80/28/1
f 81/17/1 82/18/1 83/19/1 84/20/1
f 85/21/1 86/22/1 87/23/1 88/24/1
f 89/17/1 90/18/1 91/19/1 92/20/1
f 93/17/1 94/18/1 95/19/1 96/20/1
f 97/17/1 98/18/1 99/19/1 100/20/1
f 101/21/1 102/22/1 103/23/1 104/24/1
f 105/21/1 106/22/1 107/23/1 108/24/1
f 109/1/1 110/2/1 111/3/1 112/4/1
f 113/21/1 114/22/1 115/23/1 116/24/1
f 117/21/1 118/22/1 119/23/1 120/24/1
f 121/29/1 122/30/1 123/31/1 124/32/1
f 125/21/1 126/22/1 127/23/1 128/24/1
f 129/21/1 130/22/1 131/23/1 132/24/1
f 133/17/1 134/18/1 135/19/1 136/20/1
f 137/21/1 138/22/1 139/23/1 140/24/1
f 141/17/1 142/18/1 143/19/1 144/20/1
f 145/17/1 146/18/1 147/19/1 148/20/1
f 149/17/1 150/18/1 151/19/1 152/20/1
f 153/33/1 154/34/1 155/35/1 156/36/1
f 157/9/1 158/10/1 159/11/1 160/12/1
f 161/21/1 162/22/1 163/23/1 164/24/1
f 165/21/1 166/22/1 167/23/1 168/24/1
f 169/17/1 170/18/1 171/19/1 172/20/1
f 173/21/1 174/22/1 175/23/1 176/24/1
f 177/21/1 178/22/1 179/23/1 180/24/1
f 181/37/1 182/38/1 183/39/1 184/40/1
f 185/21/1 186/22/1 187/23/1 188/24/1
f 189/1/1 190/2/1 191/3/1 192/4/1
f 193/9/1 194/10/1 195/11/1 196/12/1
f 197/25/1 198/26/1 199/27/1 200/28/1
f 201/25/1 202/26/1 203/27/1 204/28/1
f 205/29/1 206/30/1 207/31/1 208/32/1
f 209/33/1 210/34/1 211/35/1 212/36/1
f 213/33/1 214/34/1 215/35/1 216/36/1
f 217/29/1 218/30/1 219/31/1 220/32/1
f 221/29/1 222/30/1 223/31/1 224/32/1
f 225/17/1 226/18/1 227/19/1 228/20/1
f 229/41/1 230/42/1 231/43/1 232/44/1
f 233/41/1 234/42/1 235/43/1 236/44/1
f 237/37/1 238/38/1 239/39/1 240/40/1
f 241/29/1 242/30/1 243/31/1 244/32/1
f 245/45/1 246/46/1 247/47/1 248/48/1
f 249/49/1 250/50/1 251/51/1 252/52/1
f 253/33/1 254/34/1 255/35/1 256/36/1
f 257/33/1 258/34/1 259/35/1 260/36/1
f 261/25/1 262/26/1 263/27/1 264/28/1
f 265/17/1 266/18/1 267/19/1 268/20/1
f 269/37/1 270/38/1 271/39/1 272/40/1
f 273/21/1 274/22/1 275/23/1 276/24/1
f 277/5/1 278/6/1 279/7/1 280/8/1
f 281/29/1 282/30/1 283/31/1 284/32/1
f 285/25/1 286/26/1 287/27/1 288/28/1
f 289/37/1 290/38/1 291/39/1 292/40/1
f 293/49/1 294/50/1 295/51/1 296/52/1
f 297/29/1 298/30/1 299/31/1 300/32/1
f 301/37/1 302/38/1 303/39/1 304/40/1
f 305/25/1 306/26/1 307/27/1 308/28/1
f 309/21/1 310/22/1 311/23/1 312/24/1
f 313/17/1 314/18/1 315/19/1 316/20/1
f 317/29/1 318/30/1 319/31/1 320/32/1
f 321/25/1 322/26/1 323/27/1 324/28/1
f 325/17/1 326/18/1 327/19/1 328/20/1
f 329/25/1 330/26/1 331/27/1 332/28/1
f 333/29/1 334/30/1 335/31/1 336/32/1
f 337/5/1 338/6/1 339/7/1 340/8/1
f 341/21/1 342/22/1 343/23/1 344/24/1
f 345/29/1 346/30/1 347/31/1 348/32/1
f 349/21/1 350/22/1 351/23/1 352/24/1
f 353/1/1 354/2/1 355/3/1 356/4/1
f 357/1/1 358/2/1 359/3/1 360/4/1
f 361/1/1 362/2/1 363/3/1 364/4/1
f 365/1/1 366/2/1 367/3/1 368/4/1
f 369/1/1 370/2/1 371/3/1 372/4/1
f 373/9/1 374/10/1 375/11/1 376/12/1
f 377/9/1 378/10/1 379/11/1 380/12/1
f 381/9/1 382/10/1 383/11/1 384/12/1
f 385/5/1 386/6/1 387/7/1 388/8/1
f 389/9/1 390/10/1 391/11/1 392/12/1
f 393/9/1 394/10/1 395/11/1 396/12/1

