# Tiled2Unity generated file. Do not modify by hand.
# Wavefront file for 'starter_mesh_0002.obj'

# Vertices (Count = 640)
v -448 -16 0
v -464 -16 0
v -464 0 0
v -448 0 0
v -464 -32 0
v -480 -32 0
v -480 -16 0
v -464 -16 0
v -448 -32 0
v -464 -32 0
v -464 -16 0
v -448 -16 0
v -464 -48 0
v -480 -48 0
v -480 -32 0
v -464 -32 0
v -448 -48 0
v -464 -48 0
v -464 -32 0
v -448 -32 0
v -192 -48 0
v -208 -48 0
v -208 -32 0
v -192 -32 0
v -176 -48 0
v -192 -48 0
v -192 -32 0
v -176 -32 0
v -160 -48 0
v -176 -48 0
v -176 -32 0
v -160 -32 0
v -224 -64 0
v -240 -64 0
v -240 -48 0
v -224 -48 0
v -208 -64 0
v -224 -64 0
v -224 -48 0
v -208 -48 0
v -192 -64 0
v -208 -64 0
v -208 -48 0
v -192 -48 0
v -176 -64 0
v -192 -64 0
v -192 -48 0
v -176 -48 0
v -160 -64 0
v -176 -64 0
v -176 -48 0
v -160 -48 0
v -480 -80 0
v -496 -80 0
v -496 -64 0
v -480 -64 0
v -240 -80 0
v -256 -80 0
v -256 -64 0
v -240 -64 0
v -224 -80 0
v -240 -80 0
v -240 -64 0
v -224 -64 0
v -208 -80 0
v -224 -80 0
v -224 -64 0
v -208 -64 0
v -192 -80 0
v -208 -80 0
v -208 -64 0
v -192 -64 0
v -176 -80 0
v -192 -80 0
v -192 -64 0
v -176 -64 0
v -160 -80 0
v -176 -80 0
v -176 -64 0
v -160 -64 0
v -480 -96 0
v -496 -96 0
v -496 -80 0
v -480 -80 0
v -464 -96 0
v -480 -96 0
v -480 -80 0
v -464 -80 0
v -352 -96 0
v -368 -96 0
v -368 -80 0
v -352 -80 0
v -256 -96 0
v -272 -96 0
v -272 -80 0
v -256 -80 0
v -240 -96 0
v -256 -96 0
v -256 -80 0
v -240 -80 0
v -224 -96 0
v -240 -96 0
v -240 -80 0
v -224 -80 0
v -208 -96 0
v -224 -96 0
v -224 -80 0
v -208 -80 0
v -192 -96 0
v -208 -96 0
v -208 -80 0
v -192 -80 0
v -176 -96 0
v -192 -96 0
v -192 -80 0
v -176 -80 0
v -160 -96 0
v -176 -96 0
v -176 -80 0
v -160 -80 0
v -480 -112 0
v -496 -112 0
v -496 -96 0
v -480 -96 0
v -464 -112 0
v -480 -112 0
v -480 -96 0
v -464 -96 0
v -352 -112 0
v -368 -112 0
v -368 -96 0
v -352 -96 0
v -256 -112 0
v -272 -112 0
v -272 -96 0
v -256 -96 0
v -240 -112 0
v -256 -112 0
v -256 -96 0
v -240 -96 0
v -224 -112 0
v -240 -112 0
v -240 -96 0
v -224 -96 0
v -208 -112 0
v -224 -112 0
v -224 -96 0
v -208 -96 0
v -192 -112 0
v -208 -112 0
v -208 -96 0
v -192 -96 0
v -496 -128 0
v -512 -128 0
v -512 -112 0
v -496 -112 0
v -480 -128 0
v -496 -128 0
v -496 -112 0
v -480 -112 0
v -352 -128 0
v -368 -128 0
v -368 -112 0
v -352 -112 0
v -256 -128 0
v -272 -128 0
v -272 -112 0
v -256 -112 0
v -240 -128 0
v -256 -128 0
v -256 -112 0
v -240 -112 0
v -224 -128 0
v -240 -128 0
v -240 -112 0
v -224 -112 0
v -208 -128 0
v -224 -128 0
v -224 -112 0
v -208 -112 0
v -96 -128 0
v -112 -128 0
v -112 -112 0
v -96 -112 0
v -80 -128 0
v -96 -128 0
v -96 -112 0
v -80 -112 0
v -512 -144 0
v -528 -144 0
v -528 -128 0
v -512 -128 0
v -496 -144 0
v -512 -144 0
v -512 -128 0
v -496 -128 0
v -304 -144 0
v -320 -144 0
v -320 -128 0
v -304 -128 0
v -256 -144 0
v -272 -144 0
v -272 -128 0
v -256 -128 0
v -240 -144 0
v -256 -144 0
v -256 -128 0
v -240 -128 0
v -224 -144 0
v -240 -144 0
v -240 -128 0
v -224 -128 0
v -128 -144 0
v -144 -144 0
v -144 -128 0
v -128 -128 0
v -112 -144 0
v -128 -144 0
v -128 -128 0
v -112 -128 0
v -96 -144 0
v -112 -144 0
v -112 -128 0
v -96 -128 0
v -80 -144 0
v -96 -144 0
v -96 -128 0
v -80 -128 0
v -64 -144 0
v -80 -144 0
v -80 -128 0
v -64 -128 0
v -320 -160 0
v -336 -160 0
v -336 -144 0
v -320 -144 0
v -304 -160 0
v -320 -160 0
v -320 -144 0
v -304 -144 0
v -288 -160 0
v -304 -160 0
v -304 -144 0
v -288 -144 0
v -256 -160 0
v -272 -160 0
v -272 -144 0
v -256 -144 0
v -240 -160 0
v -256 -160 0
v -256 -144 0
v -240 -144 0
v -224 -160 0
v -240 -160 0
v -240 -144 0
v -224 -144 0
v -176 -160 0
v -192 -160 0
v -192 -144 0
v -176 -144 0
v -160 -160 0
v -176 -160 0
v -176 -144 0
v -160 -144 0
v -128 -160 0
v -144 -160 0
v -144 -144 0
v -128 -144 0
v -112 -160 0
v -128 -160 0
v -128 -144 0
v -112 -144 0
v -96 -160 0
v -112 -160 0
v -112 -144 0
v -96 -144 0
v -64 -160 0
v -80 -160 0
v -80 -144 0
v -64 -144 0
v -48 -160 0
v -64 -160 0
v -64 -144 0
v -48 -144 0
v -336 -176 0
v -352 -176 0
v -352 -160 0
v -336 -160 0
v -320 -176 0
v -336 -176 0
v -336 -160 0
v -320 -160 0
v -240 -176 0
v -256 -176 0
v -256 -160 0
v -240 -160 0
v -224 -176 0
v -240 -176 0
v -240 -160 0
v -224 -160 0
v -160 -176 0
v -176 -176 0
v -176 -160 0
v -160 -160 0
v -144 -176 0
v -160 -176 0
v -160 -160 0
v -144 -160 0
v -128 -176 0
v -144 -176 0
v -144 -160 0
v -128 -160 0
v -464 -192 0
v -480 -192 0
v -480 -176 0
v -464 -176 0
v -368 -192 0
v -384 -192 0
v -384 -176 0
v -368 -176 0
v -352 -192 0
v -368 -192 0
v -368 -176 0
v -352 -176 0
v -336 -192 0
v -352 -192 0
v -352 -176 0
v -336 -176 0
v -224 -192 0
v -240 -192 0
v -240 -176 0
v -224 -176 0
v -592 -208 0
v -608 -208 0
v -608 -192 0
v -592 -192 0
v -464 -208 0
v -480 -208 0
v -480 -192 0
v -464 -192 0
v -448 -208 0
v -464 -208 0
v -464 -192 0
v -448 -192 0
v -368 -208 0
v -384 -208 0
v -384 -192 0
v -368 -192 0
v -352 -208 0
v -368 -208 0
v -368 -192 0
v -352 -192 0
v -592 -224 0
v -608 -224 0
v -608 -208 0
v -592 -208 0
v -432 -240 0
v -448 -240 0
v -448 -224 0
v -432 -224 0
v -384 -240 0
v -400 -240 0
v -400 -224 0
v -384 -224 0
v -368 -240 0
v -384 -240 0
v -384 -224 0
v -368 -224 0
v -464 -256 0
v -480 -256 0
v -480 -240 0
v -464 -240 0
v -448 -256 0
v -464 -256 0
v -464 -240 0
v -448 -240 0
v -384 -256 0
v -400 -256 0
v -400 -240 0
v -384 -240 0
v -368 -256 0
v -384 -256 0
v -384 -240 0
v -368 -240 0
v -384 -272 0
v -400 -272 0
v -400 -256 0
v -384 -256 0
v -368 -272 0
v -384 -272 0
v -384 -256 0
v -368 -256 0
v -352 -272 0
v -368 -272 0
v -368 -256 0
v -352 -256 0
v -336 -272 0
v -352 -272 0
v -352 -256 0
v -336 -256 0
v -384 -288 0
v -400 -288 0
v -400 -272 0
v -384 -272 0
v -368 -288 0
v -384 -288 0
v -384 -272 0
v -368 -272 0
v -352 -288 0
v -368 -288 0
v -368 -272 0
v -352 -272 0
v -336 -288 0
v -352 -288 0
v -352 -272 0
v -336 -272 0
v -528 -304 0
v -544 -304 0
v -544 -288 0
v -528 -288 0
v -400 -304 0
v -416 -304 0
v -416 -288 0
v -400 -288 0
v -384 -304 0
v -400 -304 0
v -400 -288 0
v -384 -288 0
v -336 -304 0
v -352 -304 0
v -352 -288 0
v -336 -288 0
v -464 -320 0
v -480 -320 0
v -480 -304 0
v -464 -304 0
v -480 -336 0
v -496 -336 0
v -496 -320 0
v -480 -320 0
v -464 -336 0
v -480 -336 0
v -480 -320 0
v -464 -320 0
v -304 -336 0
v -320 -336 0
v -320 -320 0
v -304 -320 0
v -288 -336 0
v -304 -336 0
v -304 -320 0
v -288 -320 0
v -272 -336 0
v -288 -336 0
v -288 -320 0
v -272 -320 0
v -384 -352 0
v -400 -352 0
v -400 -336 0
v -384 -336 0
v -304 -352 0
v -320 -352 0
v -320 -336 0
v -304 -336 0
v -288 -352 0
v -304 -352 0
v -304 -336 0
v -288 -336 0
v -272 -352 0
v -288 -352 0
v -288 -336 0
v -272 -336 0
v -432 -368 0
v -448 -368 0
v -448 -352 0
v -432 -352 0
v -384 -368 0
v -400 -368 0
v -400 -352 0
v -384 -352 0
v -320 -368 0
v -336 -368 0
v -336 -352 0
v -320 -352 0
v -304 -368 0
v -320 -368 0
v -320 -352 0
v -304 -352 0
v -272 -368 0
v -288 -368 0
v -288 -352 0
v -272 -352 0
v -256 -368 0
v -272 -368 0
v -272 -352 0
v -256 -352 0
v -432 -384 0
v -448 -384 0
v -448 -368 0
v -432 -368 0
v -320 -384 0
v -336 -384 0
v -336 -368 0
v -320 -368 0
v -320 -400 0
v -336 -400 0
v -336 -384 0
v -320 -384 0
v -304 -400 0
v -320 -400 0
v -320 -384 0
v -304 -384 0
v -320 -416 0
v -336 -416 0
v -336 -400 0
v -320 -400 0
v -304 -416 0
v -320 -416 0
v -320 -400 0
v -304 -400 0
v -864 -480 0
v -880 -480 0
v -880 -464 0
v -864 -464 0
v -848 -480 0
v -864 -480 0
v -864 -464 0
v -848 -464 0
v -832 -480 0
v -848 -480 0
v -848 -464 0
v -832 -464 0
v -816 -480 0
v -832 -480 0
v -832 -464 0
v -816 -464 0
v -864 -496 0
v -880 -496 0
v -880 -480 0
v -864 -480 0
v -848 -496 0
v -864 -496 0
v -864 -480 0
v -848 -480 0
v -832 -496 0
v -848 -496 0
v -848 -480 0
v -832 -480 0
v -816 -496 0
v -832 -496 0
v -832 -480 0
v -816 -480 0
v -864 -512 0
v -880 -512 0
v -880 -496 0
v -864 -496 0
v -848 -512 0
v -864 -512 0
v -864 -496 0
v -848 -496 0
v -832 -512 0
v -848 -512 0
v -848 -496 0
v -832 -496 0
v -816 -512 0
v -832 -512 0
v -832 -496 0
v -816 -496 0
v -864 -528 0
v -880 -528 0
v -880 -512 0
v -864 -512 0
v -848 -528 0
v -864 -528 0
v -864 -512 0
v -848 -512 0
v -832 -528 0
v -848 -528 0
v -848 -512 0
v -832 -512 0
v -816 -528 0
v -832 -528 0
v -832 -512 0
v -816 -512 0
v -816 -544 0
v -832 -544 0
v -832 -528 0
v -816 -528 0
v -800 -544 0
v -816 -544 0
v -816 -528 0
v -800 -528 0
v -784 -544 0
v -800 -544 0
v -800 -528 0
v -784 -528 0
v -832 -560 0
v -848 -560 0
v -848 -544 0
v -832 -544 0
v -816 -560 0
v -832 -560 0
v -832 -544 0
v -816 -544 0
v -800 -560 0
v -816 -560 0
v -816 -544 0
v -800 -544 0
v -784 -560 0
v -800 -560 0
v -800 -544 0
v -784 -544 0
v -832 -576 0
v -848 -576 0
v -848 -560 0
v -832 -560 0
v -816 -576 0
v -832 -576 0
v -832 -560 0
v -816 -560 0
v -800 -576 0
v -816 -576 0
v -816 -560 0
v -800 -560 0
v -784 -576 0
v -800 -576 0
v -800 -560 0
v -784 -560 0
v -832 -592 0
v -848 -592 0
v -848 -576 0
v -832 -576 0
v -816 -592 0
v -832 -592 0
v -832 -576 0
v -816 -576 0
v -800 -592 0
v -816 -592 0
v -816 -576 0
v -800 -576 0

# Texture cooridinates (Count = 104)
vt 0.08780992 0.9695817
vt 0.1043388 0.9695817
vt 0.1043388 1
vt 0.08780992 1
vt 0.1580579 0.6787072
vt 0.1745868 0.6787072
vt 0.1745868 0.7091255
vt 0.1580579 0.7091255
vt 0.1404959 0.6787072
vt 0.1570248 0.6787072
vt 0.1570248 0.7091255
vt 0.1404959 0.7091255
vt 0.1229339 0.6787072
vt 0.1394628 0.6787072
vt 0.1394628 0.7091255
vt 0.1229339 0.7091255
vt 0.08780992 0.6463878
vt 0.1043388 0.6463878
vt 0.1043388 0.6768061
vt 0.08780992 0.6768061
vt 0.1404959 0.6463878
vt 0.1570248 0.6463878
vt 0.1570248 0.6768061
vt 0.1404959 0.6768061
vt 0.1229339 0.6463878
vt 0.1394628 0.6463878
vt 0.1394628 0.6768061
vt 0.1229339 0.6768061
vt 0.1053719 0.6787072
vt 0.1219008 0.6787072
vt 0.1219008 0.7091255
vt 0.1053719 0.7091255
vt 0.1404959 0.6140684
vt 0.1570248 0.6140684
vt 0.1570248 0.6444867
vt 0.1404959 0.6444867
vt 0.1229339 0.6140684
vt 0.1394628 0.6140684
vt 0.1394628 0.6444867
vt 0.1229339 0.6444867
vt 0.1580579 0.6463878
vt 0.1745868 0.6463878
vt 0.1745868 0.6768061
vt 0.1580579 0.6768061
vt 0.1580579 0.6140684
vt 0.1745868 0.6140684
vt 0.1745868 0.6444867
vt 0.1580579 0.6444867
vt 0.2107438 0.8726236
vt 0.2272727 0.8726236
vt 0.2272727 0.9030418
vt 0.2107438 0.9030418
vt 0.2107438 0.904943
vt 0.2272727 0.904943
vt 0.2272727 0.9353612
vt 0.2107438 0.9353612
vt 0.2283058 0.7110266
vt 0.2448347 0.7110266
vt 0.2448347 0.7414448
vt 0.2283058 0.7414448
vt 0.07024793 0.9695817
vt 0.08677686 0.9695817
vt 0.08677686 1
vt 0.07024793 1
vt 0.05268595 0.9695817
vt 0.06921487 0.9695817
vt 0.06921487 1
vt 0.05268595 1
vt 0.03512397 0.9695817
vt 0.05165289 0.9695817
vt 0.05165289 1
vt 0.03512397 1
vt 0 0.904943
vt 0.01652892 0.904943
vt 0.01652892 0.9353612
vt 0 0.9353612
vt 0.05268595 0.9372624
vt 0.06921487 0.9372624
vt 0.06921487 0.9676806
vt 0.05268595 0.9676806
vt 0.03512397 0.9372624
vt 0.05165289 0.9372624
vt 0.05165289 0.9676806
vt 0.03512397 0.9676806
vt 0.07024793 0.9372624
vt 0.08677686 0.9372624
vt 0.08677686 0.9676806
vt 0.07024793 0.9676806
vt 0.01756198 0.9372624
vt 0.03409091 0.9372624
vt 0.03409091 0.9676806
vt 0.01756198 0.9676806
vt 0.03512397 0.904943
vt 0.05165289 0.904943
vt 0.05165289 0.9353612
vt 0.03512397 0.9353612
vt 0.07024793 0.904943
vt 0.08677686 0.904943
vt 0.08677686 0.9353612
vt 0.07024793 0.9353612
vt 0.05268595 0.904943
vt 0.06921487 0.904943
vt 0.06921487 0.9353612
vt 0.05268595 0.9353612

# Normal
vn 0 0 -1

# Mesh description
g starter_mesh_0002

# Faces
f 1/1/1 2/2/1 3/3/1 4/4/1
f 5/1/1 6/2/1 7/3/1 8/4/1
f 9/1/1 10/2/1 11/3/1 12/4/1
f 13/1/1 14/2/1 15/3/1 16/4/1
f 17/1/1 18/2/1 19/3/1 20/4/1
f 21/5/1 22/6/1 23/7/1 24/8/1
f 25/9/1 26/10/1 27/11/1 28/12/1
f 29/13/1 30/14/1 31/15/1 32/16/1
f 33/5/1 34/6/1 35/7/1 36/8/1
f 37/9/1 38/10/1 39/11/1 40/12/1
f 41/17/1 42/18/1 43/19/1 44/20/1
f 45/21/1 46/22/1 47/23/1 48/24/1
f 49/25/1 50/26/1 51/27/1 52/28/1
f 53/1/1 54/2/1 55/3/1 56/4/1
f 57/5/1 58/6/1 59/7/1 60/8/1
f 61/17/1 62/18/1 63/19/1 64/20/1
f 65/21/1 66/22/1 67/23/1 68/24/1
f 69/21/1 70/22/1 71/23/1 72/24/1
f 73/21/1 74/22/1 75/23/1 76/24/1
f 77/25/1 78/26/1 79/27/1 80/28/1
f 81/1/1 82/2/1 83/3/1 84/4/1
f 85/1/1 86/2/1 87/3/1 88/4/1
f 89/1/1 90/2/1 91/3/1 92/4/1
f 93/5/1 94/6/1 95/7/1 96/8/1
f 97/17/1 98/18/1 99/19/1 100/20/1
f 101/21/1 102/22/1 103/23/1 104/24/1
f 105/21/1 106/22/1 107/23/1 108/24/1
f 109/29/1 110/30/1 111/31/1 112/32/1
f 113/33/1 114/34/1 115/35/1 116/36/1
f 117/37/1 118/38/1 119/39/1 120/40/1
f 121/1/1 122/2/1 123/3/1 124/4/1
f 125/1/1 126/2/1 127/3/1 128/4/1
f 129/1/1 130/2/1 131/3/1 132/4/1
f 133/41/1 134/42/1 135/43/1 136/44/1
f 137/21/1 138/22/1 139/23/1 140/24/1
f 141/21/1 142/22/1 143/23/1 144/24/1
f 145/29/1 146/30/1 147/31/1 148/32/1
f 149/37/1 150/38/1 151/39/1 152/40/1
f 153/1/1 154/2/1 155/3/1 156/4/1
f 157/1/1 158/2/1 159/3/1 160/4/1
f 161/1/1 162/2/1 163/3/1 164/4/1
f 165/41/1 166/42/1 167/43/1 168/44/1
f 169/21/1 170/22/1 171/23/1 172/24/1
f 173/29/1 174/30/1 175/31/1 176/32/1
f 177/37/1 178/38/1 179/39/1 180/40/1
f 181/1/1 182/2/1 183/3/1 184/4/1
f 185/1/1 186/2/1 187/3/1 188/4/1
f 189/1/1 190/2/1 191/3/1 192/4/1
f 193/1/1 194/2/1 195/3/1 196/4/1
f 197/1/1 198/2/1 199/3/1 200/4/1
f 201/41/1 202/42/1 203/43/1 204/44/1
f 205/21/1 206/22/1 207/23/1 208/24/1
f 209/25/1 210/26/1 211/27/1 212/28/1
f 213/1/1 214/2/1 215/3/1 216/4/1
f 217/1/1 218/2/1 219/3/1 220/4/1
f 221/1/1 222/2/1 223/3/1 224/4/1
f 225/1/1 226/2/1 227/3/1 228/4/1
f 229/1/1 230/2/1 231/3/1 232/4/1
f 233/1/1 234/2/1 235/3/1 236/4/1
f 237/1/1 238/2/1 239/3/1 240/4/1
f 241/1/1 242/2/1 243/3/1 244/4/1
f 245/45/1 246/46/1 247/47/1 248/48/1
f 249/33/1 250/34/1 251/35/1 252/36/1
f 253/37/1 254/38/1 255/39/1 256/40/1
f 257/1/1 258/2/1 259/3/1 260/4/1
f 261/1/1 262/2/1 263/3/1 264/4/1
f 265/1/1 266/2/1 267/3/1 268/4/1
f 269/1/1 270/2/1 271/3/1 272/4/1
f 273/1/1 274/2/1 275/3/1 276/4/1
f 277/1/1 278/2/1 279/3/1 280/4/1
f 281/1/1 282/2/1 283/3/1 284/4/1
f 285/1/1 286/2/1 287/3/1 288/4/1
f 289/1/1 290/2/1 291/3/1 292/4/1
f 293/1/1 294/2/1 295/3/1 296/4/1
f 297/1/1 298/2/1 299/3/1 300/4/1
f 301/1/1 302/2/1 303/3/1 304/4/1
f 305/1/1 306/2/1 307/3/1 308/4/1
f 309/1/1 310/2/1 311/3/1 312/4/1
f 313/1/1 314/2/1 315/3/1 316/4/1
f 317/1/1 318/2/1 319/3/1 320/4/1
f 321/1/1 322/2/1 323/3/1 324/4/1
f 325/1/1 326/2/1 327/3/1 328/4/1
f 329/1/1 330/2/1 331/3/1 332/4/1
f 333/1/1 334/2/1 335/3/1 336/4/1
f 337/1/1 338/2/1 339/3/1 340/4/1
f 341/1/1 342/2/1 343/3/1 344/4/1
f 345/1/1 346/2/1 347/3/1 348/4/1
f 349/1/1 350/2/1 351/3/1 352/4/1
f 353/1/1 354/2/1 355/3/1 356/4/1
f 357/49/1 358/50/1 359/51/1 360/52/1
f 361/1/1 362/2/1 363/3/1 364/4/1
f 365/1/1 366/2/1 367/3/1 368/4/1
f 369/53/1 370/54/1 371/55/1 372/56/1
f 373/57/1 374/58/1 375/59/1 376/60/1
f 377/1/1 378/2/1 379/3/1 380/4/1
f 381/1/1 382/2/1 383/3/1 384/4/1
f 385/1/1 386/2/1 387/3/1 388/4/1
f 389/1/1 390/2/1 391/3/1 392/4/1
f 393/1/1 394/2/1 395/3/1 396/4/1
f 397/1/1 398/2/1 399/3/1 400/4/1
f 401/1/1 402/2/1 403/3/1 404/4/1
f 405/1/1 406/2/1 407/3/1 408/4/1
f 409/1/1 410/2/1 411/3/1 412/4/1
f 413/1/1 414/2/1 415/3/1 416/4/1
f 417/1/1 418/2/1 419/3/1 420/4/1
f 421/1/1 422/2/1 423/3/1 424/4/1
f 425/1/1 426/2/1 427/3/1 428/4/1
f 429/1/1 430/2/1 431/3/1 432/4/1
f 433/1/1 434/2/1 435/3/1 436/4/1
f 437/1/1 438/2/1 439/3/1 440/4/1
f 441/1/1 442/2/1 443/3/1 444/4/1
f 445/1/1 446/2/1 447/3/1 448/4/1
f 449/1/1 450/2/1 451/3/1 452/4/1
f 453/1/1 454/2/1 455/3/1 456/4/1
f 457/1/1 458/2/1 459/3/1 460/4/1
f 461/1/1 462/2/1 463/3/1 464/4/1
f 465/1/1 466/2/1 467/3/1 468/4/1
f 469/1/1 470/2/1 471/3/1 472/4/1
f 473/1/1 474/2/1 475/3/1 476/4/1
f 477/1/1 478/2/1 479/3/1 480/4/1
f 481/1/1 482/2/1 483/3/1 484/4/1
f 485/1/1 486/2/1 487/3/1 488/4/1
f 489/1/1 490/2/1 491/3/1 492/4/1
f 493/1/1 494/2/1 495/3/1 496/4/1
f 497/1/1 498/2/1 499/3/1 500/4/1
f 501/1/1 502/2/1 503/3/1 504/4/1
f 505/1/1 506/2/1 507/3/1 508/4/1
f 509/1/1 510/2/1 511/3/1 512/4/1
f 513/1/1 514/2/1 515/3/1 516/4/1
f 517/1/1 518/2/1 519/3/1 520/4/1
f 521/5/1 522/6/1 523/7/1 524/8/1
f 525/9/1 526/10/1 527/11/1 528/12/1
f 529/9/1 530/10/1 531/11/1 532/12/1
f 533/13/1 534/14/1 535/15/1 536/16/1
f 537/41/1 538/42/1 539/43/1 540/44/1
f 541/21/1 542/22/1 543/23/1 544/24/1
f 545/21/1 546/22/1 547/23/1 548/24/1
f 549/25/1 550/26/1 551/27/1 552/28/1
f 553/41/1 554/42/1 555/43/1 556/44/1
f 557/21/1 558/22/1 559/23/1 560/24/1
f 561/21/1 562/22/1 563/23/1 564/24/1
f 565/25/1 566/26/1 567/27/1 568/28/1
f 569/45/1 570/46/1 571/47/1 572/48/1
f 573/33/1 574/34/1 575/35/1 576/36/1
f 577/33/1 578/34/1 579/35/1 580/36/1
f 581/37/1 582/38/1 583/39/1 584/40/1
f 585/61/1 586/62/1 587/63/1 588/64/1
f 589/65/1 590/66/1 591/67/1 592/68/1
f 593/69/1 594/70/1 595/71/1 596/72/1
f 597/61/1 598/62/1 599/63/1 600/64/1
f 601/73/1 602/74/1 603/75/1 604/76/1
f 605/77/1 606/78/1 607/79/1 608/80/1
f 609/81/1 610/82/1 611/83/1 612/84/1
f 613/85/1 614/86/1 615/87/1 616/88/1
f 617/77/1 618/78/1 619/79/1 620/80/1
f 621/89/1 622/90/1 623/91/1 624/92/1
f 625/93/1 626/94/1 627/95/1 628/96/1
f 629/97/1 630/98/1 631/99/1 632/100/1
f 633/101/1 634/102/1 635/103/1 636/104/1
f 637/93/1 638/94/1 639/95/1 640/96/1

