# Tiled2Unity generated file. Do not modify by hand.
# Wavefront file for 'starter_mesh_0003.obj'

# Vertices (Count = 220)
v -400 -64 0
v -416 -64 0
v -416 -48 0
v -400 -48 0
v -96 -64 0
v -112 -64 0
v -112 -48 0
v -96 -48 0
v -480 -80 0
v -496 -80 0
v -496 -64 0
v -480 -64 0
v -400 -80 0
v -416 -80 0
v -416 -64 0
v -400 -64 0
v -480 -96 0
v -496 -96 0
v -496 -80 0
v -480 -80 0
v -112 -112 0
v -128 -112 0
v -128 -96 0
v -112 -96 0
v -528 -128 0
v -544 -128 0
v -544 -112 0
v -528 -112 0
v -336 -144 0
v -352 -144 0
v -352 -128 0
v -336 -128 0
v -144 -144 0
v -160 -144 0
v -160 -128 0
v -144 -128 0
v -80 -144 0
v -96 -144 0
v -96 -128 0
v -80 -128 0
v -576 -160 0
v -592 -160 0
v -592 -144 0
v -576 -144 0
v -464 -160 0
v -480 -160 0
v -480 -144 0
v -464 -144 0
v -336 -160 0
v -352 -160 0
v -352 -144 0
v -336 -144 0
v -144 -160 0
v -160 -160 0
v -160 -144 0
v -144 -144 0
v -80 -160 0
v -96 -160 0
v -96 -144 0
v -80 -144 0
v -48 -160 0
v -64 -160 0
v -64 -144 0
v -48 -144 0
v -576 -176 0
v -592 -176 0
v -592 -160 0
v -576 -160 0
v -416 -176 0
v -432 -176 0
v -432 -160 0
v -416 -160 0
v -48 -176 0
v -64 -176 0
v -64 -160 0
v -48 -160 0
v -576 -192 0
v -592 -192 0
v -592 -176 0
v -576 -176 0
v -416 -192 0
v -432 -192 0
v -432 -176 0
v -416 -176 0
v -400 -192 0
v -416 -192 0
v -416 -176 0
v -400 -176 0
v -208 -192 0
v -224 -192 0
v -224 -176 0
v -208 -176 0
v -288 -208 0
v -304 -208 0
v -304 -192 0
v -288 -192 0
v -208 -208 0
v -224 -208 0
v -224 -192 0
v -208 -192 0
v -288 -224 0
v -304 -224 0
v -304 -208 0
v -288 -208 0
v -384 -240 0
v -400 -240 0
v -400 -224 0
v -384 -224 0
v -384 -256 0
v -400 -256 0
v -400 -240 0
v -384 -240 0
v -560 -272 0
v -576 -272 0
v -576 -256 0
v -560 -256 0
v -560 -288 0
v -576 -288 0
v -576 -272 0
v -560 -272 0
v -512 -304 0
v -528 -304 0
v -528 -288 0
v -512 -288 0
v -368 -304 0
v -384 -304 0
v -384 -288 0
v -368 -288 0
v -240 -304 0
v -256 -304 0
v -256 -288 0
v -240 -288 0
v -240 -320 0
v -256 -320 0
v -256 -304 0
v -240 -304 0
v -400 -336 0
v -416 -336 0
v -416 -320 0
v -400 -320 0
v -336 -336 0
v -352 -336 0
v -352 -320 0
v -336 -320 0
v -288 -336 0
v -304 -336 0
v -304 -320 0
v -288 -320 0
v -272 -336 0
v -288 -336 0
v -288 -320 0
v -272 -320 0
v -176 -336 0
v -192 -336 0
v -192 -320 0
v -176 -320 0
v -544 -352 0
v -560 -352 0
v -560 -336 0
v -544 -336 0
v -512 -352 0
v -528 -352 0
v -528 -336 0
v -512 -336 0
v -400 -352 0
v -416 -352 0
v -416 -336 0
v -400 -336 0
v -336 -352 0
v -352 -352 0
v -352 -336 0
v -336 -336 0
v -304 -352 0
v -320 -352 0
v -320 -336 0
v -304 -336 0
v -272 -352 0
v -288 -352 0
v -288 -336 0
v -272 -336 0
v -208 -352 0
v -224 -352 0
v -224 -336 0
v -208 -336 0
v -80 -352 0
v -96 -352 0
v -96 -336 0
v -80 -336 0
v -544 -368 0
v -560 -368 0
v -560 -352 0
v -544 -352 0
v -304 -368 0
v -320 -368 0
v -320 -352 0
v -304 -352 0
v -208 -368 0
v -224 -368 0
v -224 -352 0
v -208 -352 0
v -80 -368 0
v -96 -368 0
v -96 -352 0
v -80 -352 0
v -464 -384 0
v -480 -384 0
v -480 -368 0
v -464 -368 0
v -160 -384 0
v -176 -384 0
v -176 -368 0
v -160 -368 0
v -144 -384 0
v -160 -384 0
v -160 -368 0
v -144 -368 0
v -144 -400 0
v -160 -400 0
v -160 -384 0
v -144 -384 0

# Texture cooridinates (Count = 12)
vt 0.2283058 0.6463878
vt 0.2448347 0.6463878
vt 0.2448347 0.6768061
vt 0.2283058 0.6768061
vt 0.2283058 0.6787072
vt 0.2448347 0.6787072
vt 0.2448347 0.7091255
vt 0.2283058 0.7091255
vt 0.2283058 0.6140684
vt 0.2448347 0.6140684
vt 0.2448347 0.6444867
vt 0.2283058 0.6444867

# Normal
vn 0 0 -1

# Mesh description
g starter_mesh_0003

# Faces
f 1/1/1 2/2/1 3/3/1 4/4/1
f 5/5/1 6/6/1 7/7/1 8/8/1
f 9/1/1 10/2/1 11/3/1 12/4/1
f 13/9/1 14/10/1 15/11/1 16/12/1
f 17/9/1 18/10/1 19/11/1 20/12/1
f 21/5/1 22/6/1 23/7/1 24/8/1
f 25/5/1 26/6/1 27/7/1 28/8/1
f 29/1/1 30/2/1 31/3/1 32/4/1
f 33/1/1 34/2/1 35/3/1 36/4/1
f 37/1/1 38/2/1 39/3/1 40/4/1
f 41/5/1 42/6/1 43/7/1 44/8/1
f 45/5/1 46/6/1 47/7/1 48/8/1
f 49/9/1 50/10/1 51/11/1 52/12/1
f 53/9/1 54/10/1 55/11/1 56/12/1
f 57/9/1 58/10/1 59/11/1 60/12/1
f 61/1/1 62/2/1 63/3/1 64/4/1
f 65/1/1 66/2/1 67/3/1 68/4/1
f 69/1/1 70/2/1 71/3/1 72/4/1
f 73/9/1 74/10/1 75/11/1 76/12/1
f 77/9/1 78/10/1 79/11/1 80/12/1
f 81/9/1 82/10/1 83/11/1 84/12/1
f 85/5/1 86/6/1 87/7/1 88/8/1
f 89/1/1 90/2/1 91/3/1 92/4/1
f 93/1/1 94/2/1 95/3/1 96/4/1
f 97/9/1 98/10/1 99/11/1 100/12/1
f 101/9/1 102/10/1 103/11/1 104/12/1
f 105/1/1 106/2/1 107/3/1 108/4/1
f 109/9/1 110/10/1 111/11/1 112/12/1
f 113/1/1 114/2/1 115/3/1 116/4/1
f 117/9/1 118/10/1 119/11/1 120/12/1
f 121/5/1 122/6/1 123/7/1 124/8/1
f 125/5/1 126/6/1 127/7/1 128/8/1
f 129/1/1 130/2/1 131/3/1 132/4/1
f 133/9/1 134/10/1 135/11/1 136/12/1
f 137/1/1 138/2/1 139/3/1 140/4/1
f 141/1/1 142/2/1 143/3/1 144/4/1
f 145/5/1 146/6/1 147/7/1 148/8/1
f 149/1/1 150/2/1 151/3/1 152/4/1
f 153/5/1 154/6/1 155/7/1 156/8/1
f 157/1/1 158/2/1 159/3/1 160/4/1
f 161/5/1 162/6/1 163/7/1 164/8/1
f 165/9/1 166/10/1 167/11/1 168/12/1
f 169/9/1 170/10/1 171/11/1 172/12/1
f 173/1/1 174/2/1 175/3/1 176/4/1
f 177/9/1 178/10/1 179/11/1 180/12/1
f 181/1/1 182/2/1 183/3/1 184/4/1
f 185/1/1 186/2/1 187/3/1 188/4/1
f 189/9/1 190/10/1 191/11/1 192/12/1
f 193/9/1 194/10/1 195/11/1 196/12/1
f 197/9/1 198/10/1 199/11/1 200/12/1
f 201/9/1 202/10/1 203/11/1 204/12/1
f 205/5/1 206/6/1 207/7/1 208/8/1
f 209/5/1 210/6/1 211/7/1 212/8/1
f 213/1/1 214/2/1 215/3/1 216/4/1
f 217/9/1 218/10/1 219/11/1 220/12/1

